<svg width="1296" height="229" viewBox="0 0 1296 229" fill="none" xmlns="http://www.w3.org/2000/svg">
<path d="M0.0156024 36.6672C4.03975 36.7747 8.10999 36.4982 12.0727 37.0358C20.6893 38.2185 25.2818 43.4253 25.6657 52.1496C25.8808 57.0032 25.7886 61.8568 25.7886 66.7104C25.7886 76.4944 25.7886 86.2631 25.7886 96.0471C25.7886 96.7229 25.7886 97.4141 25.7886 98.0899L26.2494 98.2589C26.5873 97.7213 26.9406 97.1684 27.2785 96.6308C32.8693 87.2922 40.165 79.8428 50.4404 75.665C57.0449 72.9771 63.9413 72.4241 70.9605 72.7928C79.9764 73.2689 88.7006 74.9892 96.7796 79.2284C109.666 85.9866 117.008 97.0301 120.863 110.685C123.167 118.856 124.058 127.212 124.073 135.675C124.089 164.75 124.073 193.841 124.073 222.917V225.39C118.237 225.344 112.615 225.927 107.193 223.9C101.48 221.765 99.2524 217.249 98.7456 211.566C98.6688 210.737 98.6995 209.907 98.6995 209.078C98.6995 185.301 98.7302 161.525 98.6841 137.748C98.6841 131.098 98.0544 124.493 96.0577 118.088C92.4329 106.492 84.6457 99.6566 72.6807 97.5523C63.5726 95.9549 54.6949 96.3236 46.4009 100.855C34.7431 107.213 28.3229 117.305 26.1112 130.161C25.5121 133.663 25.3278 137.272 25.3125 140.835C25.251 168.191 25.2818 195.546 25.2818 222.901V225.39C19.5066 225.297 13.8697 226.019 8.44789 223.931C3.67113 222.103 1.30579 218.401 0.445666 213.532C0.353509 212.995 0.153838 212.457 0.000244141 211.919C0.000244141 153.492 0.000244141 95.0487 0.000244141 36.6211L0.0156024 36.6672Z" fill="#F2F5FB"/>
<path d="M435.146 73.186C451.888 73.0017 466.878 77.84 479.473 89.1446C490.393 98.9593 497.044 111.354 500.116 125.531C504.816 147.234 503.464 168.645 494.863 189.212C486.2 209.932 470.856 223.203 448.447 227.088C411.431 233.524 377.84 213.572 368.486 175.48C362.665 151.781 364.831 128.434 376.273 106.608C386.165 87.7315 402.246 77.072 423.304 73.8772C425.07 73.6161 426.852 73.3242 428.633 73.2321C430.799 73.1246 432.98 73.2014 435.161 73.2014L435.146 73.186ZM476.893 153.209C476.77 145.468 476.201 137.85 474.281 130.37C472.285 122.536 469.09 115.302 463.499 109.296C456.326 101.586 447.188 98.1606 436.928 97.2237C429.017 96.5018 421.353 97.3312 414.196 101.048C404.535 106.071 398.575 114.242 395.119 124.318C390.327 138.28 390.404 152.518 393.399 166.818C395.196 175.373 398.575 183.237 404.35 189.918C412.138 198.934 422.183 203.158 433.932 204.095C450.213 205.401 463.284 198.213 470.549 183.606C475.326 174.006 476.754 163.715 476.877 153.224L476.893 153.209Z" fill="#F2F5FB"/>
<path d="M154.193 117.112C154.193 111.522 153.671 106.484 154.316 101.599C155.33 94.0118 160.229 88.5898 166.127 84.1202C173.791 78.3143 182.592 75.181 192.008 73.7679C204.94 71.8173 217.781 72.1859 230.314 76.2255C248.714 82.1542 259.113 95.1176 262.538 113.826C263.444 118.817 263.767 123.978 263.813 129.062C263.966 145.42 263.92 161.793 263.843 178.151C263.797 187.951 261.831 197.32 256.671 205.798C250.312 216.258 240.728 222.371 229.101 225.366C212.912 229.544 196.723 229.636 180.78 224.122C171.365 220.866 163.132 215.721 156.819 207.887C149.401 198.672 147.189 188.089 148.817 176.554C151.551 157.17 163.501 145.773 181.241 139.522C192.776 135.467 204.756 134.238 216.89 134.146C223.479 134.1 230.068 134.1 236.657 134.162C238.101 134.162 238.593 133.747 238.485 132.318C238.086 127.112 238.209 121.812 237.287 116.713C235.598 107.236 229.746 100.847 220.469 98.4968C202.007 93.8121 184.205 95.7013 167.556 105.393C163.101 107.989 159.338 111.46 156.144 115.515C155.714 116.068 155.038 116.421 154.162 117.143L154.193 117.112ZM238.577 155.588C238.178 155.527 237.809 155.419 237.441 155.434C228.302 155.465 219.148 155.281 210.009 155.634C202.391 155.926 194.911 157.278 187.891 160.518C175.834 166.079 172.747 177.184 175.066 186.107C177.002 193.541 182.224 198.18 188.951 201.237C198.336 205.491 208.196 205.599 218.088 203.802C230.053 201.636 236.965 194.524 238.04 182.59C238.823 173.912 238.562 165.126 238.762 156.387C238.762 156.141 238.654 155.911 238.577 155.603V155.588Z" fill="#F2F5FB"/>
<path d="M360.393 203.16C359.993 207.891 359.993 212.437 359.133 216.83C358.288 221.1 355.063 223.942 350.916 224.894C335.848 228.365 321.364 227.014 308.432 217.875C300.89 212.56 297.097 204.635 295.453 195.772C294.608 191.211 294.163 186.526 294.163 181.887C294.071 134.319 294.102 86.7658 294.102 39.1973V36.6784C299.124 36.8781 303.978 36.0486 308.708 37.7228C315.113 39.996 318.293 44.8497 319.414 51.2699C319.721 53.0209 319.798 54.8333 319.798 56.615C319.813 97.1488 319.798 137.683 319.859 178.201C319.859 181.442 320.105 184.744 320.812 187.893C322.793 196.878 328.906 202.162 338.198 202.761C344.634 203.176 351.116 203.053 357.566 203.176C358.319 203.176 359.072 203.176 360.408 203.176L360.393 203.16Z" fill="#F2F5FB"/>
<path d="M437.281 0C400.818 0 371.266 11.3967 371.266 25.4661C371.266 39.5354 400.818 50.9322 437.281 50.9322C473.744 50.9322 503.295 39.5354 503.295 25.4661C503.295 11.3967 473.744 0 437.281 0ZM437.265 30.719C412.383 30.719 392.232 25.6657 392.232 19.4298C392.232 13.1938 412.398 8.14053 437.265 8.14053C462.132 8.14053 482.299 13.1938 482.299 19.4298C482.299 25.6657 462.132 30.719 437.265 30.719Z" fill="#F462B9"/>
<path d="M437.128 0C400.665 0 371.114 11.3968 371.114 25.4661C371.114 39.5354 400.665 50.9322 437.128 50.9322C473.591 50.9322 503.143 39.5354 503.143 25.4661C503.143 11.3968 473.591 0 437.128 0ZM437.113 30.719C412.231 30.719 392.079 25.6658 392.079 19.4298C392.079 13.1938 412.246 8.14055 437.113 8.14055C461.979 8.14055 482.146 13.1938 482.146 19.4298C482.146 25.6658 461.979 30.719 437.113 30.719Z" fill="#F2F5FB"/>
<path fill-rule="evenodd" clip-rule="evenodd" d="M1263.39 28.6524C1266.18 27.4931 1269.18 26.8965 1272.21 26.8965C1275.24 26.8965 1278.24 27.4931 1281.04 28.6524C1283.84 29.8116 1286.38 31.5107 1288.52 33.6527C1290.67 35.7947 1292.37 38.3376 1293.52 41.1363C1294.68 43.9349 1295.28 46.9345 1295.28 49.9637C1295.28 52.9929 1294.68 55.9925 1293.52 58.7912C1292.37 61.5898 1290.67 64.1327 1288.52 66.2747C1286.38 68.4167 1283.84 70.1158 1281.04 71.275C1278.24 72.4343 1275.24 73.0309 1272.21 73.0309C1269.18 73.0309 1266.18 72.4343 1263.39 71.275C1260.59 70.1158 1258.04 68.4167 1255.9 66.2747C1253.76 64.1327 1252.06 61.5898 1250.9 58.7912C1249.74 55.9925 1249.15 52.9929 1249.15 49.9637C1249.15 46.9345 1249.74 43.9349 1250.9 41.1363C1252.06 38.3376 1253.76 35.7947 1255.9 33.6527C1258.04 31.5107 1260.59 29.8116 1263.39 28.6524ZM1272.21 31.5099C1269.79 31.5099 1267.39 31.9873 1265.15 32.9146C1262.91 33.842 1260.88 35.2013 1259.16 36.9149C1257.45 38.6285 1256.09 40.6628 1255.16 42.9018C1254.24 45.1407 1253.76 47.5403 1253.76 49.9637C1253.76 52.3871 1254.24 54.7867 1255.16 57.0257C1256.09 59.2646 1257.45 61.2989 1259.16 63.0125C1260.88 64.7261 1262.91 66.0854 1265.15 67.0128C1267.39 67.9402 1269.79 68.4175 1272.21 68.4175C1274.64 68.4175 1277.04 67.9402 1279.28 67.0128C1281.51 66.0854 1283.55 64.7261 1285.26 63.0125C1286.98 61.2989 1288.33 59.2646 1289.26 57.0257C1290.19 54.7867 1290.67 52.3871 1290.67 49.9637C1290.67 47.5403 1290.19 45.1407 1289.26 42.9018C1288.33 40.6628 1286.98 38.6285 1285.26 36.9149C1283.55 35.2013 1281.51 33.842 1279.28 32.9146C1277.04 31.9873 1274.64 31.5099 1272.21 31.5099Z" fill="#F2F5FB"/>
<path fill-rule="evenodd" clip-rule="evenodd" d="M1265.43 42.8414C1265.43 41.5299 1266.44 40.4668 1267.69 40.4668H1272.21C1274.01 40.4668 1275.74 41.2173 1277.01 42.5533C1278.28 43.8892 1279 45.7012 1279 47.5905C1279 49.4798 1278.28 51.2918 1277.01 52.6277C1276.79 52.8617 1276.55 53.0778 1276.3 53.275L1278.33 55.4097C1279.22 56.337 1279.22 57.8405 1278.33 58.7678C1277.45 59.6952 1276.02 59.6952 1275.14 58.7678L1271.28 54.7142H1269.95V57.0888C1269.95 58.4002 1268.94 59.4633 1267.69 59.4633C1266.44 59.4633 1265.43 58.4002 1265.43 57.0888V42.8414ZM1269.95 49.9651H1272.21C1272.81 49.9651 1273.39 49.7149 1273.81 49.2696C1274.24 48.8243 1274.47 48.2203 1274.47 47.5905C1274.47 46.9607 1274.24 46.3567 1273.81 45.9114C1273.39 45.4661 1272.81 45.2159 1272.21 45.2159H1269.95V49.9651Z" fill="#F2F5FB"/>
<path fill-rule="evenodd" clip-rule="evenodd" d="M555.777 197.197C560.219 205.753 566.225 212.417 573.794 217.189C581.528 221.961 590.248 224.347 599.957 224.347C608.513 224.347 615.999 222.701 622.417 219.41C628.834 216.119 634.264 211.594 638.706 205.835L638.46 221.385H673.014L702.385 35.2842H665.609L653.762 113.772C650.471 108.178 645.124 103.57 637.719 99.9505C630.315 96.3305 622.334 94.5205 613.778 94.5205C601.437 94.5205 590.413 97.6468 580.705 103.9C570.997 109.988 563.346 118.544 557.751 129.569C552.157 140.429 549.359 153.099 549.359 167.579C549.359 178.768 551.498 188.64 555.777 197.197ZM629.081 187.077C623.98 190.368 618.221 192.014 611.804 192.014C603.906 192.014 597.653 189.545 593.046 184.609C588.438 179.673 586.135 173.173 586.135 165.11C586.135 157.87 587.698 151.371 590.824 145.612C593.951 139.853 598.147 135.328 603.412 132.037C608.677 128.581 614.436 126.854 620.689 126.854C628.587 126.854 634.84 129.322 639.447 134.258C644.054 139.194 646.358 145.694 646.358 153.757C646.358 160.832 644.795 167.332 641.668 173.255C638.542 179.014 634.346 183.622 629.081 187.077ZM701.38 221.383L720.879 97.9738H757.654L738.156 221.383H701.38ZM742.105 78.2283C737.004 78.2283 732.726 76.5829 729.27 73.292C725.979 69.8365 724.334 65.5583 724.334 60.4574C724.334 56.1793 725.486 52.2302 727.789 48.6102C730.093 44.8256 733.137 41.7816 736.921 39.4779C740.706 37.1743 744.737 36.0225 749.015 36.0225C754.281 36.0225 758.559 37.7502 761.85 41.2057C765.141 44.4966 766.786 48.6925 766.786 53.7934C766.786 57.907 765.634 61.8561 763.331 65.6406C761.027 69.4252 757.983 72.4692 754.199 74.7729C750.414 77.0765 746.383 78.2283 742.105 78.2283ZM1171.33 97.9716H1148.44L1143.5 128.577H1166.51L1151.9 221.38H1188.67L1203.29 128.577H1226.19L1231.12 97.9716H1208.11L1214.09 59.9616H1177.32L1171.33 97.9716ZM1014.51 131.044C1008.42 142.233 1005.38 154.903 1005.38 169.054C1005.38 180.737 1007.6 190.692 1012.04 198.919C1016.65 207.146 1023.23 213.481 1031.79 217.924C1040.51 222.202 1050.96 224.341 1063.13 224.341C1073.66 224.341 1083.37 222.202 1092.26 217.924C1101.14 213.481 1108.63 207.393 1114.72 199.659C1120.97 191.761 1125.33 182.629 1127.8 172.262H1090.28C1088.14 178.351 1084.85 183.122 1080.41 186.578C1075.97 190.033 1070.87 191.761 1065.11 191.761C1058.03 191.761 1052.52 189.54 1048.57 185.097C1044.79 180.654 1042.89 174.402 1042.89 166.339C1042.89 158.77 1044.21 152.106 1046.84 146.347C1049.47 140.423 1053.09 135.733 1057.7 132.278C1062.47 128.822 1067.74 127.095 1073.5 127.095C1080.08 127.095 1085.18 128.74 1088.8 132.031C1092.59 135.322 1094.64 140.094 1094.97 146.347H1131.99C1131.99 130.221 1126.97 117.551 1116.94 108.337C1107.06 99.1221 1093.33 94.5148 1075.72 94.5148C1062.39 94.5148 1050.38 97.8057 1039.68 104.388C1029.15 110.805 1020.76 119.69 1014.51 131.044ZM924.78 224.341C912.604 224.341 902.155 222.202 893.435 217.924C884.878 213.481 878.297 207.146 873.689 198.919C869.247 190.692 867.025 180.737 867.025 169.054C867.025 154.903 870.069 142.233 876.158 131.044C882.41 119.69 890.802 110.805 901.333 104.388C912.028 97.8057 924.04 94.5148 937.368 94.5148C950.202 94.5148 960.898 97.2298 969.454 102.66C978.175 107.925 984.427 115.412 988.212 125.12C991.996 134.828 992.819 146.264 990.68 159.428L989.199 169.054L902.151 169.465C902.551 177.287 904.5 183.238 907.997 187.318C912.11 191.926 918.363 194.229 926.755 194.229C932.514 194.229 937.532 192.995 941.81 190.527C946.253 188.059 949.626 184.521 951.93 179.914H987.965C985.168 188.635 980.643 196.368 974.39 203.115C968.137 209.861 960.733 215.126 952.177 218.911C943.62 222.531 934.488 224.341 924.78 224.341ZM905.639 146.593H956.126C957.278 139.847 955.961 134.499 952.177 130.55C948.392 126.437 942.715 124.38 935.146 124.38C928.894 124.38 923.217 126.272 918.116 130.057C913.18 133.677 909.231 138.695 906.269 145.112C906.05 145.601 905.84 146.095 905.639 146.593ZM863.21 132.283L868.64 97.7288C866.501 97.0706 864.197 96.6593 861.729 96.4947C859.261 96.1656 856.875 96.0011 854.571 96.0011C845.028 96.0011 836.883 98.6338 830.137 103.899C825.894 107.294 822.403 111.304 819.664 115.929L820.511 97.9756H785.957L766.458 221.385H803.234L811.872 166.591C813.189 158.528 815.575 152.029 819.03 147.092C822.485 141.991 826.928 138.289 832.358 135.986C837.953 133.517 844.288 132.283 851.363 132.283H863.21Z" fill="url(#paint0_linear_334_7379)"/>
<defs>
<linearGradient id="paint0_linear_334_7379" x1="1219.68" y1="131.045" x2="549.359" y2="129.815" gradientUnits="userSpaceOnUse">
<stop stop-color="#DC9BFF"/>
<stop offset="1" stop-color="#6B6DE3"/>
</linearGradient>
</defs>
</svg>
